<svg width="1200" height="311" viewBox="0 0 1200 311" fill="none" xmlns="http://www.w3.org/2000/svg">
<path d="M708.394 235.316C697.724 235.316 688.983 232.873 682.17 227.988C675.485 222.975 672.143 216.033 672.143 207.163C672.143 198.036 674.971 191.03 680.627 186.145C686.412 181.131 694.896 177.467 706.08 175.153L739.44 168.597C739.44 161.913 737.897 156.899 734.812 153.557C731.855 150.086 727.549 148.35 721.892 148.35C716.365 148.35 712.058 149.636 708.973 152.207C705.888 154.649 703.895 158.313 702.995 163.198L673.878 161.848C675.806 150.536 680.884 141.987 689.111 136.202C697.467 130.289 708.394 127.332 721.892 127.332C737.319 127.332 748.888 130.996 756.601 138.323C764.443 145.651 768.364 156.385 768.364 170.526V205.813C768.364 208.77 768.814 210.762 769.714 211.791C770.742 212.691 772.22 213.141 774.149 213.141H777.041V233.002C776.141 233.259 774.663 233.516 772.606 233.773C770.678 234.03 768.75 234.159 766.821 234.159C762.708 234.159 758.851 233.452 755.252 232.038C751.781 230.624 748.953 228.246 746.767 224.903C744.582 221.432 743.489 216.547 743.489 210.248L745.996 212.177C744.71 216.804 742.396 220.854 739.054 224.325C735.84 227.796 731.598 230.495 726.327 232.424C721.185 234.352 715.208 235.316 708.394 235.316ZM715.336 215.455C720.093 215.455 724.271 214.555 727.87 212.755C731.469 210.827 734.298 208.063 736.354 204.463C738.411 200.864 739.44 196.622 739.44 191.737V186.723L715.915 191.737C711.287 192.637 707.752 194.179 705.309 196.365C702.995 198.421 701.838 201.121 701.838 204.463C701.838 207.934 702.995 210.634 705.309 212.562C707.623 214.49 710.965 215.455 715.336 215.455Z" fill="white"/>
<path d="M636.185 233.003C625.515 233.003 617.674 230.56 612.66 225.675C607.647 220.662 605.14 212.756 605.14 201.958V105.351H634.064V198.487C634.064 203.5 635.093 206.907 637.149 208.707C639.335 210.506 642.549 211.406 646.791 211.406H661.253V233.003H636.185ZM588.557 151.244V129.647H661.253V151.244H588.557Z" fill="white"/>
<path d="M517.676 233.003V129.647H545.057L546.022 159.729L543.9 159.15C545.572 148.737 548.528 141.217 552.771 136.589C557.013 131.961 562.862 129.647 570.318 129.647H579.767V153.558H570.318C564.919 153.558 560.484 154.265 557.013 155.679C553.542 157.093 550.907 159.343 549.107 162.428C547.436 165.514 546.6 169.691 546.6 174.962V233.003H517.676Z" fill="white"/>
<path d="M433.844 235.316C423.174 235.316 414.432 232.873 407.619 227.988C400.934 222.975 397.592 216.033 397.592 207.163C397.592 198.036 400.42 191.03 406.076 186.145C411.861 181.131 420.346 177.467 431.53 175.153L464.889 168.597C464.889 161.913 463.346 156.899 460.261 153.557C457.304 150.086 452.998 148.35 447.342 148.35C441.814 148.35 437.507 149.636 434.422 152.207C431.337 154.649 429.344 158.313 428.444 163.198L399.327 161.848C401.256 150.536 406.333 141.987 414.561 136.202C422.917 130.289 433.844 127.332 447.342 127.332C462.768 127.332 474.337 130.996 482.051 138.323C489.892 145.651 493.813 156.385 493.813 170.526V205.813C493.813 208.77 494.263 210.762 495.163 211.791C496.191 212.691 497.67 213.141 499.598 213.141H502.49V233.002C501.591 233.259 500.112 233.516 498.055 233.773C496.127 234.03 494.199 234.159 492.271 234.159C488.157 234.159 484.3 233.452 480.701 232.038C477.23 230.624 474.402 228.246 472.216 224.903C470.031 221.432 468.938 216.547 468.938 210.248L471.445 212.177C470.16 216.804 467.846 220.854 464.503 224.325C461.289 227.796 457.047 230.495 451.777 232.424C446.634 234.352 440.657 235.316 433.844 235.316ZM440.785 215.455C445.542 215.455 449.72 214.555 453.319 212.755C456.919 210.827 459.747 208.063 461.804 204.463C463.86 200.864 464.889 196.622 464.889 191.737V186.723L441.364 191.737C436.736 192.637 433.201 194.179 430.758 196.365C428.444 198.421 427.287 201.121 427.287 204.463C427.287 207.934 428.444 210.634 430.758 212.562C433.072 214.49 436.415 215.455 440.785 215.455Z" fill="white"/>
<path d="M314.118 233.004L264.754 96.0957H295.028L331.473 200.03L367.917 96.0957H398.191L348.634 233.004H314.118Z" fill="white"/>
<path d="M1078.92 233.005L1047.3 130.806H1065.04L1088.95 216.036L1113.25 130.806H1130.6L1154.9 216.036L1179 130.806H1196.74L1165.12 233.005H1144.68L1121.92 155.295L1099.17 233.005H1078.92Z" fill="url(#paint0_linear_2330_110)"/>
<path d="M992.756 235.319C983.371 235.319 975.144 233.134 968.074 228.763C961.003 224.392 955.54 218.222 951.683 210.251C947.827 202.153 945.898 192.704 945.898 181.906C945.898 170.979 947.827 161.53 951.683 153.56C955.54 145.59 961.003 139.419 968.074 135.048C975.144 130.678 983.371 128.492 992.756 128.492C1002.14 128.492 1010.3 130.678 1017.24 135.048C1024.32 139.419 1029.78 145.59 1033.64 153.56C1037.49 161.53 1039.42 170.979 1039.42 181.906C1039.42 192.704 1037.49 202.153 1033.64 210.251C1029.78 218.222 1024.32 224.392 1017.24 228.763C1010.3 233.134 1002.14 235.319 992.756 235.319ZM992.756 219.893C1002.14 219.893 1009.4 216.55 1014.55 209.866C1019.82 203.053 1022.45 193.732 1022.45 181.906C1022.45 170.079 1019.82 160.823 1014.55 154.138C1009.4 147.325 1002.14 143.918 992.756 143.918C983.371 143.918 976.044 147.325 970.773 154.138C965.503 160.823 962.867 170.079 962.867 181.906C962.867 193.732 965.503 203.053 970.773 209.866C976.044 216.55 983.371 219.893 992.756 219.893Z" fill="url(#paint1_linear_2330_110)"/>
<path d="M922.615 233.004C916.701 233.004 911.881 231.461 908.153 228.376C904.425 225.291 902.561 220.406 902.561 213.721V96.0957H918.758V212.371C918.758 214.428 919.272 216.035 920.301 217.192C921.458 218.22 923.065 218.735 925.121 218.735H933.992V233.004H922.615Z" fill="url(#paint2_linear_2330_110)"/>
<path d="M794.902 233.004V96.0957H880.904V112.293H803.194L811.486 103.809V166.671L803.194 158.186H877.433V173.998H803.194L811.486 165.514V233.004H794.902Z" fill="url(#paint3_linear_2330_110)"/>
<path d="M54.1093 50.1458L70.6694 286.91L5 309V2L54.1093 50.1458ZM134.055 309H84.9454L98.6503 184.387H120.921L134.055 309ZM214 309L148.331 286.91L164.891 50.1458L214 2V309Z" fill="white"/>
<defs>
<linearGradient id="paint0_linear_2330_110" x1="1122.02" y1="130.806" x2="1122.02" y2="233.005" gradientUnits="userSpaceOnUse">
<stop stop-color="#41A0FF"/>
<stop offset="1" stop-color="white"/>
</linearGradient>
<linearGradient id="paint1_linear_2330_110" x1="992.659" y1="128.492" x2="992.659" y2="235.319" gradientUnits="userSpaceOnUse">
<stop stop-color="#41A0FF"/>
<stop offset="1" stop-color="white"/>
</linearGradient>
<linearGradient id="paint2_linear_2330_110" x1="918.276" y1="96.0957" x2="918.276" y2="233.004" gradientUnits="userSpaceOnUse">
<stop stop-color="#41A0FF"/>
<stop offset="1" stop-color="white"/>
</linearGradient>
<linearGradient id="paint3_linear_2330_110" x1="837.903" y1="96.0957" x2="837.903" y2="233.004" gradientUnits="userSpaceOnUse">
<stop stop-color="#41A0FF"/>
<stop offset="1" stop-color="white"/>
</linearGradient>
</defs>
</svg>
